<svg width="220" height="26" viewBox="0 0 220 26" fill="none" xmlns="http://www.w3.org/2000/svg">
<path d="M13.7461 6.90625H9.23438L9.26172 5.40234H5.87109L5.26953 17.8711L13.1992 17.7344L12.8438 22.5469H0.265625L1.52344 0.78125H14.0469L13.7461 6.90625ZM28.6992 22.5469H15.8477L16.5312 8.4375H29.4648L28.6992 22.5469ZM24.2422 17.9258L24.543 13.0312H20.9883L20.7695 17.9258H24.2422ZM31.2656 22.5469L32.3047 8.41016H44.8555L44.418 22.5469H39.6328L40.043 12.9766H36.5703L36.1055 22.5469H31.2656ZM54.4766 12.8125H51.9062L51.7148 15.2461H54.2305L54.4766 12.8125ZM60.082 12.8125H59.125L58.25 25.8008L46.6562 25.8281L46.7656 20.0312H51.5781L51.4688 21.3438H53.875L54.0117 19.7031H46.7109L47.4219 8.32812H60.6016L60.082 12.8125ZM67.0781 22.5469H62.457L63.1406 8.4375H67.7344L67.625 9.85938L70.4688 8.4375H75.8555L75.6094 13.0312H70.5781L67.4883 14.7812L67.0781 22.5469ZM90.7812 22.5469H77.7383L78.75 13.1133H86.5156L86.543 12.375H78.4219L78.6406 8.32812H91.4922L90.7812 22.5469ZM82.7969 16.75L82.6875 18.9375H86.1875L86.3789 16.75H82.7969ZM96.7656 5.42969L98.9531 6.14062L101.469 5.42969L101.168 8.35547H106.363L105.434 12.8672H100.812L100.32 18.0625H105.488L104.559 22.5469H95.1523L96.0547 12.8672H94.2773L93.5391 8.35547H96.4375L96.7656 5.42969ZM122.027 8.4375L121.207 22.5742H108.438L108.875 8.4375L111.199 9.53125L113.66 8.4375L113.25 18.0078H116.723L117.188 8.4375L119.73 9.53125L122.027 8.4375ZM125.168 4.88281L124.43 0.480469H131.895L131.129 18.1992H133.207L132.277 22.6016H124.84L124.102 18.1992H126.371L126.973 4.88281H125.168ZM148.215 22.5469H135.172L136.184 13.1133H143.949L143.977 12.375H135.855L136.074 8.32812H148.926L148.215 22.5469ZM140.23 16.75L140.121 18.9375H143.621L143.812 16.75H140.23ZM154.199 5.42969L156.387 6.14062L158.902 5.42969L158.602 8.35547H163.797L162.867 12.8672H158.246L157.754 18.0625H162.922L161.992 22.5469H152.586L153.488 12.8672H151.711L150.973 8.35547H153.871L154.199 5.42969ZM167.566 6.52344L166.773 4.0625L168.031 1.68359H171.23L172.352 4.17188L171.012 6.52344H167.566ZM171.668 8.38281L170.984 22.6016H166.145L166.965 8.38281L169.289 9.09375L171.668 8.38281ZM187.387 22.5469H174.535L175.219 8.4375H188.152L187.387 22.5469ZM182.93 17.9258L183.23 13.0312H179.676L179.457 17.9258H182.93ZM189.953 22.5469L190.992 8.41016H203.543L203.105 22.5469H198.32L198.73 12.9766H195.258L194.793 22.5469H189.953ZM206.219 8.32812H219.125L218.77 13.1406H214.066L214.176 12.5664H210.703L210.676 13.5781H218.824L218.359 22.6016H205.672L205.918 17.7344H210.512L210.43 18.3906H213.547L213.629 17.3789H205.863L206.219 8.32812Z" fill="black"/>
</svg>
