<svg width="112" height="23" viewBox="0 0 112 23" fill="none" xmlns="http://www.w3.org/2000/svg">
<path d="M0.267578 22.5469L1.63477 0.890625H7.18555L8.63477 6.90625L11.2598 0.890625H16.7012L16.0449 22.5469H11.3145L11.8613 9.36719L9.5918 14.4805H6.39258L5.43555 9.25781L4.99805 22.5469H0.267578ZM19.1035 8.4375H32.1465L31.5723 17.1055H23.3691L23.2324 18.0625H27.0605L27.1699 17.4062H31.5449L31.2441 22.5469H18.3926L19.1035 8.4375ZM27.3066 13.4688L27.416 12.375H23.5879L23.5059 13.4688H27.3066ZM33.9473 22.5469L34.9863 8.41016H49.2871L48.8496 22.5469H44.2832L44.6934 12.7031H44.1191L43.5176 22.5469H39.3613L39.9629 12.7578H39.252L38.7871 22.5469H33.9473ZM50.9785 22.5469L52.7832 0.78125L55.0254 1.875L57.2676 0.78125L56.4746 8.41016H64.5684L64.1309 22.5469H50.9785ZM59.9746 12.7031L56.0645 12.7578L55.791 18.2812H59.7285L59.9746 12.7031ZM67.1348 8.4375H80.1777L79.6035 17.1055H71.4004L71.2637 18.0625H75.0918L75.2012 17.4062H79.5762L79.2754 22.5469H66.4238L67.1348 8.4375ZM75.3379 13.4688L75.4473 12.375H71.6191L71.5371 13.4688H75.3379ZM86.791 22.5469H82.1699L82.8535 8.4375H87.4473L87.3379 9.85938L90.1816 8.4375H95.5684L95.3223 13.0312H90.291L87.2012 14.7812L86.791 22.5469ZM98.2441 8.32812H111.15L110.795 13.1406H106.092L106.201 12.5664H102.729L102.701 13.5781H110.85L110.385 22.6016H97.6973L97.9434 17.7344H102.537L102.455 18.3906H105.572L105.654 17.3789H97.8887L98.2441 8.32812Z" fill="black"/>
</svg>
