<svg width="88" height="23" viewBox="0 0 88 23" fill="none" xmlns="http://www.w3.org/2000/svg">
<path d="M0.1875 22.5469L1.55469 0.890625H7.10547L8.55469 6.90625L11.1797 0.890625H16.6211L15.9648 22.5469H11.2344L11.7812 9.36719L9.51172 14.4805H6.3125L5.35547 9.25781L4.91797 22.5469H0.1875ZM31.3008 22.5469H18.4492L19.1328 8.4375H32.0664L31.3008 22.5469ZM26.8438 17.9258L27.1445 13.0312H23.5898L23.3711 17.9258H26.8438ZM47.4297 8.4375L42.3438 22.5742H36.5742L34.2773 8.4375L36.9297 9.53125L39.0625 8.4375L39.9375 18.0078L42.5898 8.4375L44.8047 9.42188L47.4297 8.4375ZM51.1719 6.52344L50.3789 4.0625L51.6367 1.68359H54.8359L55.957 4.17188L54.6172 6.52344H51.1719ZM55.2734 8.38281L54.5898 22.6016H49.75L50.5703 8.38281L52.8945 9.09375L55.2734 8.38281ZM58.7148 8.4375H71.7578L71.1836 17.1055H62.9805L62.8438 18.0625H66.6719L66.7812 17.4062H71.1562L70.8555 22.5469H58.0039L58.7148 8.4375ZM66.918 13.4688L67.0273 12.375H63.1992L63.1172 13.4688H66.918ZM74.3242 8.32812H87.2305L86.875 13.1406H82.1719L82.2812 12.5664H78.8086L78.7812 13.5781H86.9297L86.4648 22.6016H73.7773L74.0234 17.7344H78.6172L78.5352 18.3906H81.6523L81.7344 17.3789H73.9688L74.3242 8.32812Z" fill="black"/>
</svg>
