<svg width="198" height="26" viewBox="0 0 198 26" fill="none" xmlns="http://www.w3.org/2000/svg">
<path d="M0.677734 0.453125L3.08398 1.32812L5.4082 0.453125L5.38086 11.4453L6.93945 3.40625H10.0293L10.7949 11.4453L12.709 0.453125L15.0059 1.32812L17.4395 0.453125L13.3379 22.5742H8.55273L7.86914 14.6719L6.44727 22.5742H1.55273L0.677734 0.453125ZM19.7871 8.4375H32.8301L32.2559 17.1055H24.0527L23.916 18.0625H27.7441L27.8535 17.4062H32.2285L31.9277 22.5469H19.0762L19.7871 8.4375ZM27.9902 13.4688L28.0996 12.375H24.2715L24.1895 13.4688H27.9902ZM47.6465 22.5469H34.6035L35.6152 8.41016H43.709L43.9824 0.78125L46.2246 1.875L48.4668 0.78125L47.6465 22.5469ZM39.6621 12.7031L39.5527 18.2812H43.3809L43.5723 12.7578L39.6621 12.7031ZM63.1465 22.5469H50.1035L51.1152 8.41016H59.209L59.4824 0.78125L61.7246 1.875L63.9668 0.78125L63.1465 22.5469ZM55.1621 12.7031L55.0527 18.2812H58.8809L59.0723 12.7578L55.1621 12.7031ZM67.4355 6.52344L66.6426 4.0625L67.9004 1.68359H71.0996L72.2207 4.17188L70.8809 6.52344H67.4355ZM71.5371 8.38281L70.8535 22.6016H66.0137L66.834 8.38281L69.1582 9.09375L71.5371 8.38281ZM74.3223 22.5469L75.3613 8.41016H87.9121L87.4746 22.5469H82.6895L83.0996 12.9766H79.627L79.1621 22.5469H74.3223ZM97.5332 12.8125H94.9629L94.7715 15.2461H97.2871L97.5332 12.8125ZM103.139 12.8125H102.182L101.307 25.8008L89.7129 25.8281L89.8223 20.0312H94.6348L94.5254 21.3438H96.9316L97.0684 19.7031H89.7676L90.4785 8.32812H103.658L103.139 12.8125ZM126.592 5.12891L126.455 8.24609L130.283 8.27344L130.475 5.12891H126.592ZM120.795 5.12891V0.78125H135.506L134.74 12.5938H126.127L125.744 22.6289H120.959L121.752 5.12891H120.795ZM150.213 22.5469H137.17L138.182 13.1133H145.947L145.975 12.375H137.854L138.072 8.32812H150.924L150.213 22.5469ZM142.229 16.75L142.119 18.9375H145.619L145.811 16.75H142.229ZM157.51 22.5469H152.889L153.572 8.4375H158.166L158.057 9.85938L160.9 8.4375H166.287L166.041 13.0312H161.01L157.92 14.7812L157.51 22.5469ZM171.697 5.42969L173.885 6.14062L176.4 5.42969L176.1 8.35547H181.295L180.365 12.8672H175.744L175.252 18.0625H180.42L179.49 22.5469H170.084L170.986 12.8672H169.209L168.471 8.35547H171.369L171.697 5.42969ZM190.451 25.7188H184.463L183.807 21.3438H186.924L187.635 19.4844L183.369 8.41016L186.76 9.3125L188.893 8.38281L190.041 13.0312L191.846 8.38281L194.307 9.09375L197.041 8.41016L190.451 25.7188Z" fill="black"/>
</svg>
