<svg width="132" height="21" viewBox="0 0 132 21" fill="none" xmlns="http://www.w3.org/2000/svg">
<path d="M0.140625 19L1.19531 3.0625L3.04688 3.8125L4.92188 3.15625L4.52344 16.6797L0.140625 19ZM5.90625 7.32812L5.36719 3.36719H9.09375L9.44531 0.53125L11.2969 1.28125L12.9844 0.625L12.7031 3.36719H15.4219L14.625 7.32812H12.4453L11.9297 13.8672L6.51562 19.9375L8.60156 7.32812H5.90625ZM28.0547 7.32812L27.3047 17.1719H21.1641L20.7188 13.9844H24.2344L24.4922 10.4453H17.7891L17.2266 7.32812H28.0547ZM30.9375 7.14062L30.3984 3.17969H40.5469L39.75 7.14062H30.9375ZM30.4219 16.8906L29.8828 13.2109L41.3438 15.3672L38.0156 18.8594L30.4219 16.8906ZM49.1719 13.6562L43.1016 19L44.0625 0.507812L46.1953 1.1875L48.4453 0.4375L47.3438 10.9375L50.7656 7.91406L52.5938 13.0938L55.3125 10.6562L56.8125 14.4062L51.0938 19L49.1719 13.6562ZM71.3672 12.5312L70.8984 19.4688H58.5469L59.5078 0.976562L61.6406 1.65625L63.8906 0.90625L62.7422 15.6484L67.2422 15.6953L67.5 12.5312L69.3516 13.6562L71.3672 12.5312ZM74.9297 11.2422H79.7578L80.0859 7.53906H87.4453L86.25 11.0312H84.1172L84 11.4766L87.4922 12.5312L85.9922 16.8438L83.7422 15.7188L83.2969 20.1719H74.3906L74.9297 11.2422ZM79.2188 16.2109L79.3359 15.2031H78.8203L78.75 16.2109H79.2188ZM75.1406 7.1875H73.9688L73.0781 3.50781H75.75L76.0547 1.72656L77.8594 2.875L80.3203 1.72656L79.9688 3.50781H85.9219L85.0312 7.1875H79.5234L79.0078 10.8438H74.5781L75.1406 7.1875ZM101.438 3.0625L93.7734 8.96875L99.7969 17.125L95.5078 19.4688L89.5078 8.17188L97.2656 1.32812L101.438 3.0625ZM105.445 9.83594L109.406 7.1875H104.203L103.312 3.22656H116.836L115.172 6.90625L109.523 11.125L109.172 15.5547H113.93L113.062 19.5156H104.906L105.445 9.83594ZM131.555 12.3438L131.086 19.4688H119.672L120.117 11.0781H119.109L118.57 7.49219H120.281L120.352 6.39062H119.203L118.664 2.80469H120.539L120.633 0.882812L122.766 1.5625L125.016 0.8125L124.852 2.80469H130.875L130.078 6.39062H124.57L124.5 7.49219H131.25L130.453 11.0781H124.219L123.867 15.4609L127.43 15.5078L127.688 12.3438L129.539 13.4688L131.555 12.3438Z" fill="white"/>
</svg>
