<svg width="215" height="21" viewBox="0 0 215 21" fill="none" xmlns="http://www.w3.org/2000/svg">
<path d="M14.9844 6.625L14.5156 19.2344L10.3906 17.1484L11 10.5625H10.7891L8.58594 18.625H0.757812L1.34375 6.625H5.82031L5.91406 6.15625H1.36719L0.476562 2.28906H6.05469L6.26562 0.601562L7.97656 1.75L10.25 0.601562L9.99219 2.28906H15.3828L14.4922 6.15625H9.73438L9.61719 6.625H14.9844ZM7.36719 10.5625H7.03906L6.75781 13.1172L7.36719 10.5625ZM4.64844 10.5625H4.32031L4.03906 14.8047H4.32031L4.64844 10.5625ZM18.8984 11.2422H23.7266L24.0547 7.53906H31.4141L30.2188 11.0312H28.0859L27.9688 11.4766L31.4609 12.5312L29.9609 16.8438L27.7109 15.7188L27.2656 20.1719H18.3594L18.8984 11.2422ZM23.1875 16.2109L23.3047 15.2031H22.7891L22.7188 16.2109H23.1875ZM19.1094 7.1875H17.9375L17.0469 3.50781H19.7188L20.0234 1.72656L21.8281 2.875L24.2891 1.72656L23.9375 3.50781H29.8906L29 7.1875H23.4922L22.9766 10.8438H18.5469L19.1094 7.1875ZM35.4688 6.25H34.2969L33.4062 2.57031H36.0781L36.3828 0.789062L38.0938 1.9375L40.3672 0.789062L40.1094 2.57031H46.3438L45.4531 6.25H39.6641L38.3984 17.9688L33.5938 19.6562L35.4688 6.25ZM40.6719 10.1406L40.1328 6.55469H47.9375L47.1406 10.1406H40.6719ZM40.1562 17.5469L39.6172 14.2422L48.7344 16.3984L45.4062 19.5156L40.1562 17.5469ZM51.5 7.96094L53.3281 6.71875L50.5391 4.30469L52.7656 0.742188L56.2344 4.9375L60.4531 2.3125L61.9766 6.34375L55.5781 9.8125L55.1328 15.4609H61.8594L60.9922 19.4219H50.9609L51.5 7.96094ZM63.7578 19L64.8125 3.0625L66.6641 3.8125L68.5391 3.15625L68.1406 16.6797L63.7578 19ZM69.5234 7.32812L68.9844 3.36719H72.7109L73.0625 0.53125L74.9141 1.28125L76.6016 0.625L76.3203 3.36719H79.0391L78.2422 7.32812H76.0625L75.5469 13.8672L70.1328 19.9375L72.2188 7.32812H69.5234ZM91.6719 7.32812L90.9219 17.1719H84.7812L84.3359 13.9844H87.8516L88.1094 10.4453H81.4062L80.8438 7.32812H91.6719ZM94.5547 7.14062L94.0156 3.17969H104.164L103.367 7.14062H94.5547ZM94.0391 16.8906L93.5 13.2109L104.961 15.3672L101.633 18.8594L94.0391 16.8906ZM112.789 13.6562L106.719 19L107.68 0.507812L109.812 1.1875L112.062 0.4375L110.961 10.9375L114.383 7.91406L116.211 13.0938L118.93 10.6562L120.43 14.4062L114.711 19L112.789 13.6562ZM134.984 12.5312L134.516 19.4688H122.164L123.125 0.976562L125.258 1.65625L127.508 0.90625L126.359 15.6484L130.859 15.6953L131.117 12.5312L132.969 13.6562L134.984 12.5312ZM138.828 6.25H137.656L136.766 2.57031H139.438L139.742 0.789062L141.453 1.9375L143.727 0.789062L143.469 2.57031H149.703L148.812 6.25H143.023L141.758 17.9688L136.953 19.6562L138.828 6.25ZM144.031 10.1406L143.492 6.55469H151.297L150.5 10.1406H144.031ZM143.516 17.5469L142.977 14.2422L152.094 16.3984L148.766 19.5156L143.516 17.5469ZM160.297 18.625H153.945L154.906 3.03906L157.039 3.71875L159.289 2.96875L158.141 14.6172L161.047 14.6641L160.297 18.625ZM162.219 14.4297L163.508 3.0625L165.312 3.8125L167.328 3.13281L166.039 18.4375L162.219 14.4297ZM182.047 3.15625L181.672 19.2344L177.453 17.1484L178.062 6.71875H177.617L177.055 18.625H169.227L169.906 3.15625H182.047ZM173.516 15.1797L174.055 6.71875H173.633L172.977 15.1797H173.516ZM186.078 9.83594L190.039 7.1875H184.836L183.945 3.22656H197.281L193.086 8.89844L190.156 11.125L189.805 15.5547H194.562L193.695 19.5156H185.539L186.078 9.83594ZM193.531 14.9453L194.234 10.4453L196.531 8.66406H197.68L193.531 14.9453ZM192.805 10.0234L196.953 4.42188L196.18 8.26562L193.906 10.0234H192.805ZM201.055 6.83594H205.789L205.859 6.53125H200.469L199.578 3.03906H206.188L206.492 0.882812L208.672 2.03125L211.039 0.882812L210.781 3.03906H214.883L212.844 6.53125H210.43L209.328 15.0156L207.195 18.1562L201.008 20.5938L204.781 14.7812H200.516L201.055 6.83594ZM205.156 11.0547L205.273 10.6094H204.664L204.594 11.0547H205.156Z" fill="white"/>
</svg>
