<svg width="229" height="23" viewBox="0 0 229 23" fill="none" xmlns="http://www.w3.org/2000/svg">
<path d="M13.7062 14.5312L13.2374 21.4688H0.885864L1.8468 2.97656L3.97961 3.65625L6.22961 2.90625L5.08118 17.6484L9.58118 17.6953L9.83899 14.5312L11.6906 15.6562L13.7062 14.5312ZM29.9015 8.625L29.4327 21.2344L25.3077 19.1484L25.9171 12.5625H25.7062L23.5031 20.625H15.6749L16.2609 8.625H20.7374L20.8312 8.15625H16.2843L15.3937 4.28906H20.9718L21.1827 2.60156L22.8937 3.75L25.1671 2.60156L24.9093 4.28906H30.2999L29.4093 8.15625H24.6515L24.5343 8.625H29.9015ZM22.2843 12.5625H21.9562L21.6749 15.1172L22.2843 12.5625ZM19.5656 12.5625H19.2374L18.9562 16.8047H19.2374L19.5656 12.5625ZM34.0265 22.3125L34.8468 15.9844L33.1359 17.6719L31.9406 13.4297L35.339 11.8359L35.4562 10.9219H32.6202L32.0812 6.77344H35.9249L36.2999 2.60156L38.0577 3.28125L39.9327 2.53125L39.6984 6.67969H46.0734L45.0421 20.2969H39.0421L39.9093 16.1484H40.8702L41.7374 10.8281H39.3937L38.6671 20.5312L34.0265 22.3125ZM50.5265 10.6875H48.6984L47.8077 6.82031H50.8546L51.1593 4.28906L53.1515 5.4375L55.7999 4.28906L55.4484 6.82031H56.9952L57.3468 4.3125L59.3859 5.36719L61.6827 4.3125L61.214 6.82031H64.6124L62.8546 10.6875H60.6515L59.8781 15.8438H55.3077L55.0265 12.1875H56.2687L56.4796 10.6875H55.0031L54.5109 16.2422H61.4249L60.6515 20.0156H49.4952L50.5265 10.6875ZM66.464 21L67.5187 4.6875L69.3702 5.4375L71.2452 4.78125L70.8468 18.6797L66.464 21ZM72.2296 9.14062L71.6906 5.17969H80.2452L79.4484 9.14062H72.2296ZM71.714 18.9844L71.1749 15.3047L81.0421 17.4609L77.714 20.9531L71.714 18.9844ZM84.6749 13.2422H89.5031L89.8312 9.53906H97.1906L95.9952 13.0312H93.8624L93.7452 13.4766L97.2374 14.5312L95.7374 18.8438L93.4874 17.7188L93.0421 22.1719H84.1359L84.6749 13.2422ZM88.964 18.2109L89.0812 17.2031H88.5656L88.4952 18.2109H88.964ZM84.8859 9.1875H83.714L82.8234 5.50781H85.4952L85.7999 3.72656L87.6046 4.875L90.0656 3.72656L89.714 5.50781H95.6671L94.7765 9.1875H89.2687L88.7531 12.8438H84.3234L84.8859 9.1875ZM101.198 22.3125L102.019 15.9844L100.308 17.6719L99.1124 13.4297L102.511 11.8359L102.628 10.9219H99.7921L99.2531 6.77344H103.097L103.566 2.60156L105.323 3.28125L107.198 2.53125L106.87 6.67969H113.245L111.956 17.3672H114.019L113.526 21.4219H106.87L108.816 10.8281H106.566L105.839 20.5312L101.198 22.3125ZM127.097 8.88281L126.3 21.4688H116.058L115.73 12.9375H122.292L122.128 17.5078H122.48L122.784 12.5625H115.941L120.441 6.82031H116.925L116.081 2.8125H127.542L123.112 8.88281H127.097ZM119.175 16.8047H118.823L118.894 17.4375H119.151L119.175 16.8047ZM130.401 9.14062L129.862 5.17969H140.011L139.214 9.14062H130.401ZM129.886 18.8906L129.347 15.2109L140.808 17.3672L137.48 20.8594L129.886 18.8906ZM155.526 5.15625L155.151 21.2344L150.933 19.1484L151.542 8.71875H151.097L150.534 20.625H142.706L143.386 5.15625H155.526ZM146.995 17.1797L147.534 8.71875H147.112L146.456 17.1797H146.995ZM170.245 14.5312L169.776 21.4688H157.425L158.386 2.97656L160.519 3.65625L162.769 2.90625L161.62 17.6484L166.12 17.6953L166.378 14.5312L168.23 15.6562L170.245 14.5312ZM166.894 12.5391L167.597 8.03906L169.894 6.25781H171.042L166.894 12.5391ZM166.167 7.61719L170.316 2.01562L169.542 5.85938L167.269 7.61719H166.167ZM185.128 10.9453L185.831 6.44531L188.128 4.66406H189.276L185.128 10.9453ZM184.401 6.02344L188.55 0.421875L187.776 4.26562L185.503 6.02344H184.401ZM174.933 8.25H173.761L172.87 4.57031H175.542L175.847 2.78906L177.558 3.9375L179.831 2.78906L179.573 4.57031H185.058L183.675 6.375H185.386L184.917 8.25H179.128L177.862 19.9688L173.058 21.6562L174.933 8.25ZM180.136 12.1406L179.597 8.55469L185.175 8.53125L184.612 12.0938L187.237 8.55469H187.401L186.605 12.1406H180.136ZM179.62 19.5469L179.081 16.2422L188.198 18.3984L184.87 21.5156L179.62 19.5469ZM197.433 20.625H191.081L192.042 5.03906L194.175 5.71875L196.425 4.96875L195.276 16.6172L198.183 16.6641L197.433 20.625ZM199.355 16.4297L200.644 5.0625L202.448 5.8125L204.464 5.13281L203.175 20.4375L199.355 16.4297ZM206.292 21L207.347 4.6875L209.198 5.4375L211.073 4.78125L210.675 18.6797L206.292 21ZM212.058 9.14062L211.519 5.17969H220.073L219.276 9.14062H212.058ZM211.542 18.9844L211.003 15.3047L220.87 17.4609L217.542 20.9531L211.542 18.9844ZM224.011 21.9844L222.862 15.8672L223.87 15.375L228.3 20.1797L224.011 21.9844Z" fill="white"/>
</svg>
