<svg width="73" height="21" viewBox="0 0 73 21" fill="none" xmlns="http://www.w3.org/2000/svg">
<path d="M2.67786 20.3125L3.49817 13.9844L1.78723 15.6719L0.591919 11.4297L3.99036 9.83594L4.10754 8.92188H1.27161L0.732544 4.77344H4.57629L4.95129 0.601562L6.70911 1.28125L8.58411 0.53125L8.34973 4.67969H14.7247L13.6935 18.2969H7.69348L8.56067 14.1484H9.52161L10.3888 8.82812H8.04504L7.31848 18.5312L2.67786 20.3125ZM18.4982 6.25H17.3263L16.4357 2.57031H19.1075L19.4122 0.789062L21.1232 1.9375L23.3966 0.789062L23.1388 2.57031H29.3732L28.4825 6.25H22.6935L21.4279 17.9688L16.6232 19.6562L18.4982 6.25ZM23.7013 10.1406L23.1622 6.55469H30.9669L30.17 10.1406H23.7013ZM23.1857 17.5469L22.6466 14.2422L31.7638 16.3984L28.4357 19.5156L23.1857 17.5469ZM46.4122 12.5312L45.9435 19.4688H33.5919L34.5529 0.976562L36.6857 1.65625L38.9357 0.90625L37.7872 15.6484L42.2872 15.6953L42.545 12.5312L44.3966 13.6562L46.4122 12.5312ZM53.5607 8.89844H57.7325L57.8966 7.28125H54.006L53.1154 3.78906H58.0372L58.2482 1.5625L60.3575 2.40625L62.4669 1.65625L62.3497 3.78906H65.045L63.5685 7.28125H61.9982L61.881 9.03906L64.5294 9.625L63.0294 13.6562L61.5294 12.8125L61.0841 19.0469H52.9279L53.5607 8.89844ZM57.2872 15.4609L57.4982 12.4844H57.0763L56.9122 15.4609H57.2872ZM48.17 18.4375L49.2247 2.125L51.0763 2.875L52.9513 2.21875L52.5529 16.1172L48.17 18.4375ZM68.1622 19.9844L67.0138 13.8672L68.0216 13.375L72.4513 18.1797L68.1622 19.9844Z" fill="white"/>
</svg>
