<svg width="373" height="40" viewBox="0 0 373 40" fill="none" xmlns="http://www.w3.org/2000/svg">
<g clip-path="url(#clip0)">
<path d="M17 30L-0.320511 0L34.3205 0L17 30Z" fill="#EB5757"/>
<path d="M51 30L33.6795 0L68.3205 0L51 30Z" fill="#FFFDF0"/>
<path d="M85 30L67.6795 0L102.321 0L85 30Z" fill="#EB5757"/>
<path d="M119 30L101.679 0L136.321 0L119 30Z" fill="#FFFDF0"/>
<path d="M153 30L135.679 0L170.321 0L153 30Z" fill="#EB5757"/>
<path d="M187 30L169.679 0L204.321 0L187 30Z" fill="#FFFDF0"/>
<path d="M221 29L203.679 -1L238.321 -1L221 29Z" fill="#EB5757"/>
<path d="M255 29L237.679 -1L272.321 -1L255 29Z" fill="#FFFDF0"/>
<path d="M289 29L271.679 -1L306.321 -1L289 29Z" fill="#EB5757"/>
<path d="M323 29L305.679 -1L340.321 -1L323 29Z" fill="#FFFDF0"/>
<path d="M357 30L339.679 0L374.321 0L357 30Z" fill="#EB5757"/>
</g>
<defs>
<clipPath id="clip0">
<rect width="375" height="40" fill="white"/>
</clipPath>
</defs>
</svg>
